<svg width="25" height="28" viewBox="0 0 25 28" fill="none" xmlns="http://www.w3.org/2000/svg">
<path d="M0 5C0 2.23858 2.23858 0 5 0H24.2667V28H0V5Z" fill="black"/>
<path d="M15.75 12.3333H15.125V11.0952C15.125 9.38667 13.725 8 12 8C10.275 8 8.875 9.38667 8.875 11.0952V12.3333H8.25C7.55937 12.3333 7 12.8874 7 13.5714V19.7619C7 20.446 7.55937 21 8.25 21H15.75C16.4406 21 17 20.446 17 19.7619V13.5714C17 12.8874 16.4406 12.3333 15.75 12.3333ZM12 9.17619C13.0687 9.17619 13.9375 10.0367 13.9375 11.0952V12.3333H10.125V11.0952H10.0625C10.0625 10.0367 10.9313 9.17619 12 9.17619ZM15.75 19.7619H8.25V13.5714H15.75V19.7619ZM12 17.9048C12.6906 17.9048 13.25 17.3507 13.25 16.6667C13.25 15.9826 12.6906 15.4286 12 15.4286C11.3094 15.4286 10.75 15.9826 10.75 16.6667C10.75 17.3507 11.3094 17.9048 12 17.9048Z" fill="white"/>
</svg>
